<svg width="53" height="87" viewBox="0 0 53 87" fill="none" xmlns="http://www.w3.org/2000/svg">
<path d="M7.22301 85.1435H15.3089C15.2131 79.6783 17.642 77.473 20.9339 77.473C23.1712 77.473 24.5774 78.4638 27.5497 81.0526C32.152 85.0795 35.348 86.8374 39.6626 86.8374C46.8217 86.8374 52.9581 81.8835 52.7024 70.7933H44.6165C44.7124 75.875 42.4112 78.4638 38.9915 78.4638C36.7223 78.4638 35.2841 77.4091 32.3757 74.8842C27.7095 70.7933 24.5135 69.0994 20.2628 69.0994C13.0398 69.0994 6.96733 74.0533 7.22301 85.1435Z" fill="#40D29E"/>
<path d="M7.22301 68.1435H15.3089C15.2131 62.6783 17.642 60.473 20.9339 60.473C23.1712 60.473 24.5774 61.4638 27.5497 64.0526C32.152 68.0795 35.348 69.8374 39.6626 69.8374C46.8217 69.8374 52.9581 64.8835 52.7024 53.7933H44.6165C44.7124 58.875 42.4112 61.4638 38.9915 61.4638C36.7223 61.4638 35.2841 60.4091 32.3757 57.8842C27.7095 53.7933 24.5135 52.0994 20.2628 52.0994C13.0398 52.0994 6.96733 57.0533 7.22301 68.1435Z" fill="#40D29E"/>
</svg>
